<svg width="24" height="25" viewBox="0 0 24 25" fill="none" xmlns="http://www.w3.org/2000/svg">
<g clip-path="url(#clip0_9791_71172)">
<path d="M7 9.86279V7.86279H21V9.86279H7ZM7 13.8628V11.8628H21V13.8628H7ZM7 17.8628V15.8628H21V17.8628H7ZM4 9.86279C3.71667 9.86279 3.475 9.77113 3.275 9.58779C3.09167 9.38779 3 9.14613 3 8.86279C3 8.57946 3.09167 8.34613 3.275 8.16279C3.475 7.96279 3.71667 7.86279 4 7.86279C4.28333 7.86279 4.51667 7.96279 4.7 8.16279C4.9 8.34613 5 8.57946 5 8.86279C5 9.14613 4.9 9.38779 4.7 9.58779C4.51667 9.77113 4.28333 9.86279 4 9.86279ZM4 13.8628C3.71667 13.8628 3.475 13.7711 3.275 13.5878C3.09167 13.3878 3 13.1461 3 12.8628C3 12.5795 3.09167 12.3461 3.275 12.1628C3.475 11.9628 3.71667 11.8628 4 11.8628C4.28333 11.8628 4.51667 11.9628 4.7 12.1628C4.9 12.3461 5 12.5795 5 12.8628C5 13.1461 4.9 13.3878 4.7 13.5878C4.51667 13.7711 4.28333 13.8628 4 13.8628ZM4 17.8628C3.71667 17.8628 3.475 17.7711 3.275 17.5878C3.09167 17.3878 3 17.1461 3 16.8628C3 16.5795 3.09167 16.3461 3.275 16.1628C3.475 15.9628 3.71667 15.8628 4 15.8628C4.28333 15.8628 4.51667 15.9628 4.7 16.1628C4.9 16.3461 5 16.5795 5 16.8628C5 17.1461 4.9 17.3878 4.7 17.5878C4.51667 17.7711 4.28333 17.8628 4 17.8628Z" fill="#444746"/>
</g>
<defs>
<clipPath id="clip0_9791_71172">
<rect width="18" height="18" fill="white" transform="translate(3 3.86279)"/>
</clipPath>
</defs>
</svg>
